<?xml version="1.0" encoding="UTF-8"?>
<!DOCTYPE svg PUBLIC "-//W3C//DTD SVG 1.1//EN" "http://www.w3.org/Graphics/SVG/1.1/DTD/svg11.dtd">
<svg xmlns="http://www.w3.org/2000/svg" version="1.1" width="118px" height="201px" style="shape-rendering:geometricPrecision; text-rendering:geometricPrecision; image-rendering:optimizeQuality; fill-rule:evenodd; clip-rule:evenodd" xmlns:xlink="http://www.w3.org/1999/xlink">
<g><path style="opacity:1" fill="#21b372" d="M 111.5,105.5 C 109.407,106.045 107.407,106.878 105.5,108C 107.545,108.49 109.545,108.323 111.5,107.5C 111.5,118.5 111.5,129.5 111.5,140.5C 106.509,137.603 101.175,135.437 95.5,134C 94.8801,131.788 93.7134,129.954 92,128.5C 89.8228,132.167 87.1561,135.5 84,138.5C 83.3333,145.5 83.3333,152.5 84,159.5C 87.7471,166.663 91.7471,173.663 96,180.5C 96.4986,184.152 96.6653,187.818 96.5,191.5C 86.5,191.5 76.5,191.5 66.5,191.5C 65.3034,181.129 65.47,170.796 67,160.5C 72.5053,152.16 77.5053,143.493 82,134.5C 82.6667,125.833 82.6667,117.167 82,108.5C 78.3967,104.252 75.0633,99.9187 72,95.5C 69.2919,96.7664 67.7919,98.9331 67.5,102C 65.0261,102.113 63.0261,103.113 61.5,105C 56.4873,104.441 52.4873,106.108 49.5,110C 43.3386,109.015 40.0052,111.515 39.5,117.5C 36.3979,117.154 33.5645,117.821 31,119.5C 28.697,127.677 28.3637,136.01 30,144.5C 31.8686,149.772 33.5353,155.106 35,160.5C 34.9222,170.821 34.7555,181.155 34.5,191.5C 27.5,191.5 20.5,191.5 13.5,191.5C 13.3354,188.482 13.502,185.482 14,182.5C 17.9192,176.33 21.5859,169.997 25,163.5C 25.6667,157.833 25.6667,152.167 25,146.5C 22.1218,144.066 20.2885,141.066 19.5,137.5C 18.1667,137.5 16.8333,137.5 15.5,137.5C 15.5,138.833 15.5,140.167 15.5,141.5C 12.515,143.445 9.18169,144.445 5.5,144.5C 5.5,99.1667 5.5,53.8333 5.5,8.5C 40.8333,8.5 76.1667,8.5 111.5,8.5C 111.5,40.8333 111.5,73.1667 111.5,105.5 Z"/></g>
<g><path style="opacity:1" fill="#0e3f28" d="M 78.5,66.5 C 78.4914,64.6916 78.9914,63.0249 80,61.5C 80.5986,63.5348 80.0986,65.2015 78.5,66.5 Z"/></g>
<g><path style="opacity:1" fill="#124b30" d="M 44.5,58.5 C 47.4001,64.4366 48.9001,70.7699 49,77.5C 46.7125,71.35 45.2125,65.0167 44.5,58.5 Z"/></g>
<g><path style="opacity:1" fill="#0e3b26" d="M 78.5,66.5 C 78.5086,68.3084 78.0086,69.9751 77,71.5C 76.4014,69.4652 76.9014,67.7985 78.5,66.5 Z"/></g>
<g><path style="opacity:1" fill="#0f3623" d="M 24.5,70.5 C 27.796,73.9437 29.9627,77.9437 31,82.5C 28.1735,78.8446 26.0068,74.8446 24.5,70.5 Z"/></g>
<g><path style="opacity:1" fill="#0b2b1c" d="M 66.5,66.5 C 67.5176,69.3768 67.3509,72.3768 66,75.5C 65.6987,72.4929 65.8654,69.4929 66.5,66.5 Z"/></g>
<g><path style="opacity:1" fill="#0d4129" d="M 35.5,68.5 C 37.4619,70.425 38.2952,72.7583 38,75.5C 36.4766,73.4308 35.6432,71.0974 35.5,68.5 Z"/></g>
<g><path style="opacity:1" fill="#0e3221" d="M 19.5,81.5 C 16.2809,79.4716 14.1143,76.8049 13,73.5C 15.7821,75.7705 17.9488,78.4372 19.5,81.5 Z"/></g>
<g><path style="opacity:1" fill="#0c271a" d="M 87.5,71.5 C 87.5191,75.1614 86.0191,78.4947 83,81.5C 84.1234,78.1433 85.6234,74.81 87.5,71.5 Z"/></g>
<g><path style="opacity:1" fill="#12442c" d="M 93.5,80.5 C 94.2389,80.369 94.9056,80.5357 95.5,81C 94.3783,83.1238 92.8783,84.9571 91,86.5C 91.4826,84.4634 92.3159,82.4634 93.5,80.5 Z"/></g>
<g><path style="opacity:1" fill="#115435" d="M 19.5,81.5 C 21.7565,82.5618 22.9232,84.2285 23,86.5C 21.1978,85.2107 20.0312,83.5441 19.5,81.5 Z"/></g>
<g><path style="opacity:1" fill="#0f3322" d="M 7.5,84.5 C 10.2971,86.795 12.9638,89.295 15.5,92C 11.7981,90.8044 9.13144,88.3044 7.5,84.5 Z"/></g>
<g><path style="opacity:1" fill="#0e3523" d="M 101.5,87.5 C 102.774,88.1894 102.774,89.0228 101.5,90C 99.6313,91.6017 97.6313,92.6017 95.5,93C 97.3962,90.932 99.3962,89.0987 101.5,87.5 Z"/></g>
<g><path style="opacity:1" fill="#000100" d="M 66.5,191.5 C 55.8333,191.5 45.1667,191.5 34.5,191.5C 34.7555,181.155 34.9222,170.821 35,160.5C 33.5353,155.106 31.8686,149.772 30,144.5C 28.3637,136.01 28.697,127.677 31,119.5C 33.5645,117.821 36.3979,117.154 39.5,117.5C 40.0052,111.515 43.3386,109.015 49.5,110C 52.4873,106.108 56.4873,104.441 61.5,105C 63.0261,103.113 65.0261,102.113 67.5,102C 67.7919,98.9331 69.2919,96.7664 72,95.5C 75.0633,99.9187 78.3967,104.252 82,108.5C 82.6667,117.167 82.6667,125.833 82,134.5C 77.5053,143.493 72.5053,152.16 67,160.5C 65.47,170.796 65.3034,181.129 66.5,191.5 Z"/></g>
<g><path style="opacity:1" fill="#123f29" d="M 10.5,99.5 C 8.19962,99.4784 7.03296,98.4784 7,96.5C 8.51845,97.1634 9.68512,98.1634 10.5,99.5 Z"/></g>
<g><path style="opacity:1" fill="#0c2a1b" d="M 10.5,99.5 C 11.7562,99.4614 12.7562,99.9614 13.5,101C 12.0024,101.585 11.0024,101.085 10.5,99.5 Z"/></g>
<g><path style="opacity:1" fill="#124d31" d="M 102.5,98.5 C 104.379,98.3932 104.712,98.8932 103.5,100C 94.6937,104.599 94.3604,104.099 102.5,98.5 Z"/></g>
<g><path style="opacity:1" fill="#0f412a" d="M 111.5,105.5 C 111.5,106.167 111.5,106.833 111.5,107.5C 109.545,108.323 107.545,108.49 105.5,108C 107.407,106.878 109.407,106.045 111.5,105.5 Z"/></g>
<g><path style="opacity:1" fill="#000101" d="M 111.5,140.5 C 111.5,157.5 111.5,174.5 111.5,191.5C 106.5,191.5 101.5,191.5 96.5,191.5C 96.6653,187.818 96.4986,184.152 96,180.5C 91.7471,173.663 87.7471,166.663 84,159.5C 83.3333,152.5 83.3333,145.5 84,138.5C 87.1561,135.5 89.8228,132.167 92,128.5C 93.7134,129.954 94.8801,131.788 95.5,134C 101.175,135.437 106.509,137.603 111.5,140.5 Z"/></g>
<g><path style="opacity:1" fill="#010302" d="M 13.5,191.5 C 10.8333,191.5 8.16667,191.5 5.5,191.5C 5.5,175.833 5.5,160.167 5.5,144.5C 9.18169,144.445 12.515,143.445 15.5,141.5C 15.5,140.167 15.5,138.833 15.5,137.5C 16.8333,137.5 18.1667,137.5 19.5,137.5C 20.2885,141.066 22.1218,144.066 25,146.5C 25.6667,152.167 25.6667,157.833 25,163.5C 21.5859,169.997 17.9192,176.33 14,182.5C 13.502,185.482 13.3354,188.482 13.5,191.5 Z"/></g>
</svg>
